<?xml version="1.0" encoding="iso-8859-1"?>
<!-- Generator: Adobe Illustrator 19.0.0, SVG Export Plug-In . SVG Version: 6.00 Build 0)  -->
<svg version="1.1" id="Layer_1" xmlns="http://www.w3.org/2000/svg" xmlns:xlink="http://www.w3.org/1999/xlink" x="0px" y="0px"
	 viewBox="0 0 512 512" style="enable-background:new 0 0 512 512;" xml:space="preserve">
<g>
	<g>
		<path d="M437.02,74.982C388.667,26.628,324.38,0,256,0S123.333,26.628,74.98,74.982C26.628,123.333,0,187.619,0,256
			s26.628,132.667,74.98,181.019C123.333,485.372,187.62,512,256,512s132.667-26.628,181.02-74.981
			C485.372,388.667,512,324.381,512,256S485.372,123.333,437.02,74.982z M256,491.602c-129.911,0-235.602-105.69-235.602-235.602
			S126.089,20.398,256,20.398S491.602,126.089,491.602,256S385.911,491.602,256,491.602z"/>
	</g>
</g>
<g>
	<g>
		<path d="M358.269,251.424L268.811,73.246c-1.731-3.446-5.258-5.623-9.115-5.623h-96.852c-3.538,0-6.823,1.834-8.681,4.845
			c-1.857,3.011-2.021,6.768-0.434,9.931L240.891,256l-87.16,173.602c-1.587,3.162-1.424,6.92,0.434,9.931
			c1.858,3.011,5.142,4.845,8.681,4.845h96.852c3.856,0,7.384-2.177,9.114-5.622l89.458-178.178
			C359.715,257.697,359.715,254.303,358.269,251.424z M253.405,423.979h-74.027l82.04-163.401c1.445-2.88,1.445-6.275,0-9.154
			l-82.04-163.402h74.027L337.743,256L253.405,423.979z"/>
	</g>
</g>
<g>
	<g>
		<path d="M443.103,352.224c-4.874-2.819-11.115-1.155-13.936,3.722c-26.668,46.099-71.389,80.192-122.698,93.537
			c-5.451,1.417-8.721,6.985-7.304,12.437c1.194,4.592,5.331,7.635,9.864,7.635c0.85,0,1.713-0.108,2.575-0.33
			c56.554-14.708,105.839-52.273,135.221-103.064C449.645,361.284,447.98,355.046,443.103,352.224z"/>
	</g>
</g>
<g>
	<g>
		<path d="M458.932,311.578c-5.354-1.743-11.112,1.176-12.86,6.531c-0.865,2.648-1.8,5.319-2.779,7.936
			c-1.975,5.276,0.702,11.153,5.978,13.127c1.178,0.441,2.385,0.65,3.573,0.65c4.132,0,8.021-2.53,9.554-6.628
			c1.081-2.887,2.112-5.834,3.066-8.755C467.21,319.084,464.286,313.327,458.932,311.578z"/>
	</g>
</g>
<g>
</g>
<g>
</g>
<g>
</g>
<g>
</g>
<g>
</g>
<g>
</g>
<g>
</g>
<g>
</g>
<g>
</g>
<g>
</g>
<g>
</g>
<g>
</g>
<g>
</g>
<g>
</g>
<g>
</g>
</svg>
