<?xml version="1.0" encoding="iso-8859-1"?>
<!-- Generator: Adobe Illustrator 19.0.0, SVG Export Plug-In . SVG Version: 6.00 Build 0)  -->
<svg version="1.1" id="Layer_1" xmlns="http://www.w3.org/2000/svg" xmlns:xlink="http://www.w3.org/1999/xlink" x="0px" y="0px"
	 viewBox="0 0 512 512" style="enable-background:new 0 0 512 512;" xml:space="preserve">
<g>
	<g>
		<path d="M485.813,186.38H26.188C11.748,186.38,0,198.129,0,212.568v86.865c0,14.439,11.748,26.187,26.188,26.187h459.625
			c14.439,0,26.187-11.748,26.187-26.187v-86.865C512,198.129,500.252,186.38,485.813,186.38z M491.602,299.432
			c0,3.192-2.597,5.789-5.789,5.789H26.188c-3.192,0-5.789-2.597-5.789-5.789v-86.864c0-3.192,2.597-5.789,5.789-5.789v0h459.625
			c3.192,0,5.789,2.597,5.789,5.789V299.432z"/>
	</g>
</g>
<g>
	<g>
		<path d="M163.108,269.37H48.013c-5.632,0-10.199,4.567-10.199,10.199c0,5.632,4.567,10.199,10.199,10.199h115.095
			c5.632,0,10.199-4.567,10.199-10.199C173.307,273.937,168.74,269.37,163.108,269.37z"/>
	</g>
</g>
<g>
	<g>
		<path d="M206.615,269.37h-7.081c-5.632,0-10.199,4.567-10.199,10.199c0,5.632,4.567,10.199,10.199,10.199h7.081
			c5.633,0,10.199-4.567,10.199-10.199C216.815,273.937,212.247,269.37,206.615,269.37z"/>
	</g>
</g>
<g>
</g>
<g>
</g>
<g>
</g>
<g>
</g>
<g>
</g>
<g>
</g>
<g>
</g>
<g>
</g>
<g>
</g>
<g>
</g>
<g>
</g>
<g>
</g>
<g>
</g>
<g>
</g>
<g>
</g>
</svg>
