<?xml version="1.0" encoding="iso-8859-1"?>
<!-- Generator: Adobe Illustrator 19.0.0, SVG Export Plug-In . SVG Version: 6.00 Build 0)  -->
<svg version="1.1" id="Layer_1" xmlns="http://www.w3.org/2000/svg" xmlns:xlink="http://www.w3.org/1999/xlink" x="0px" y="0px"
	 viewBox="0 0 512 512" style="enable-background:new 0 0 512 512;" xml:space="preserve">
<g>
	<g>
		<path d="M433.646,479.244L375.804,356.87c-0.951-2.009-2.385-3.69-4.126-4.933c-5.093-3.664-12.233-3.103-16.689,1.565
			c-3.907,4.092-4.555,10.108-2.026,14.844l50.301,106.425l-50.034-22.276c-6.658-2.964-14.282-2.962-20.906-0.001l-76.26,33.941
			c0,0-0.006,0-0.015,0c-0.034,0-0.116,0-0.116,0l-76.241-33.932c-6.641-2.969-14.269-2.972-20.922-0.008l-50.037,22.278
			l50.301-106.42c1.885-3.529,2.083-7.888,0.156-11.742c-3.157-6.312-10.845-8.862-17.156-5.707
			c-2.559,1.28-4.615,3.382-5.838,5.968l-57.84,122.367c-3.477,7.347-2.057,15.851,3.618,21.666
			c5.679,5.817,14.152,7.444,21.597,4.138l65.71-29.202l76.258,33.939c3.326,1.481,6.894,2.221,10.462,2.221
			c3.567,0,7.135-0.74,10.457-2.219l76.378-33.942l65.604,29.208c7.435,3.302,15.907,1.674,21.585-4.145
			C435.7,495.088,437.121,486.583,433.646,479.244z"/>
	</g>
</g>
<g>
	<g>
		<path d="M369.526,46.559C338.48,15.941,297.339-0.585,253.71,0.016c-42.38,0.588-82.283,17.612-112.363,47.938
			c-30.074,30.323-46.776,70.365-47.028,112.751c-0.153,25.903,5.966,51.695,17.696,74.592c0.127,0.244,0.259,0.484,0.4,0.721
			l110.578,185.33c7.002,11.736,19.342,18.741,33.007,18.741c13.665,0,26.004-7.006,33.004-18.742l110.578-185.33
			c0.142-0.236,0.273-0.477,0.4-0.721c11.745-22.923,17.699-47.69,17.699-73.614C417.68,118.069,400.579,77.186,369.526,46.559z
			 M377.422,223.286L267.061,408.255c-3.382,5.669-8.862,6.281-11.061,6.281c-2.199,0-7.68-0.612-11.062-6.281L134.576,223.286
			c-9.887-19.435-14.831-40.438-14.701-62.429C120.31,87.278,180.509,26.589,254.065,25.57
			c36.739-0.516,71.379,13.408,97.518,39.187c26.144,25.785,40.544,60.209,40.544,96.927
			C392.127,183.38,387.18,204.104,377.422,223.286z"/>
	</g>
</g>
<g>
	<g>
		<path d="M256.003,103.182c-32.257,0-58.499,26.242-58.499,58.499s26.242,58.499,58.499,58.499
			c32.257,0,58.499-26.242,58.499-58.499S288.26,103.182,256.003,103.182z M256.003,194.626c-18.166,0-32.945-14.779-32.945-32.945
			s14.779-32.945,32.945-32.945c18.166,0,32.945,14.779,32.945,32.945S274.17,194.626,256.003,194.626z"/>
	</g>
</g>
<g>
</g>
<g>
</g>
<g>
</g>
<g>
</g>
<g>
</g>
<g>
</g>
<g>
</g>
<g>
</g>
<g>
</g>
<g>
</g>
<g>
</g>
<g>
</g>
<g>
</g>
<g>
</g>
<g>
</g>
</svg>
