<?xml version="1.0" encoding="iso-8859-1"?>
<!-- Generator: Adobe Illustrator 19.0.0, SVG Export Plug-In . SVG Version: 6.00 Build 0)  -->
<svg version="1.1" id="Layer_1" xmlns="http://www.w3.org/2000/svg" xmlns:xlink="http://www.w3.org/1999/xlink" x="0px" y="0px"
	 viewBox="0 0 512 512" style="enable-background:new 0 0 512 512;" xml:space="preserve">
<g>
	<g>
		<path d="M511.559,197.85c-1.249-4.11-4.94-6.998-9.23-7.221l-177.848-9.228L265.589,18.757c-1.462-4.038-5.296-6.726-9.589-6.726
			c-0.008,0-0.017,0-0.027,0c-4.305,0.011-8.138,2.723-9.582,6.778L188.501,181.4L9.675,190.628
			c-4.298,0.222-7.994,3.118-9.238,7.237c-1.244,4.119,0.232,8.577,3.688,11.141l134.272,99.585L94.186,487.32
			c-1.044,4.221,0.703,8.641,4.351,11.007c1.693,1.098,3.623,1.642,5.548,1.642c2.222,0,4.439-0.724,6.276-2.157L256,384.187
			l145.639,113.624c3.421,2.67,8.156,2.881,11.801,0.53c3.645-2.351,5.406-6.752,4.386-10.968l-43.24-178.784l133.319-99.604
			C511.346,206.413,512.808,201.961,511.559,197.85z M356.986,296.276c-3.27,2.444-4.767,6.601-3.808,10.568l37.945,156.891
			L262.274,363.21c-1.843-1.439-4.058-2.158-6.273-2.158c-2.215,0-4.431,0.719-6.274,2.157L121.071,463.583l38.759-156.688
			c0.988-3.994-0.52-8.191-3.825-10.642L39.082,209.537l157.269-8.117c4.115-0.212,7.7-2.881,9.082-6.764L256.081,52.41
			l51.524,142.299c1.396,3.855,4.966,6.501,9.061,6.713l156.418,8.117L356.986,296.276z"/>
	</g>
</g>
<g>
	<g>
		<path d="M367.621,408.303l-13.241-54.748c-1.325-5.475-6.836-8.84-12.31-7.516c-5.475,1.324-8.841,6.835-7.516,12.31
			l13.241,54.748c1.13,4.67,5.304,7.804,9.905,7.804c0.793,0,1.6-0.094,2.405-0.289C365.58,419.289,368.946,413.778,367.621,408.303
			z"/>
	</g>
</g>
<g>
	<g>
		<path d="M346.98,322.956l-0.494-2.041c-1.326-5.474-6.836-8.841-12.312-7.514c-5.475,1.326-8.839,6.837-7.514,12.312l0.494,2.041
			c1.13,4.669,5.305,7.802,9.905,7.802c0.795,0,1.602-0.094,2.407-0.289C344.941,333.943,348.305,328.431,346.98,322.956z"/>
	</g>
</g>
<g>
</g>
<g>
</g>
<g>
</g>
<g>
</g>
<g>
</g>
<g>
</g>
<g>
</g>
<g>
</g>
<g>
</g>
<g>
</g>
<g>
</g>
<g>
</g>
<g>
</g>
<g>
</g>
<g>
</g>
</svg>
