<?xml version="1.0" encoding="iso-8859-1"?>
<!-- Generator: Adobe Illustrator 19.0.0, SVG Export Plug-In . SVG Version: 6.00 Build 0)  -->
<svg version="1.1" id="Capa_1" xmlns="http://www.w3.org/2000/svg" xmlns:xlink="http://www.w3.org/1999/xlink" x="0px" y="0px"
	 viewBox="0 0 511.999 511.999" style="enable-background:new 0 0 511.999 511.999;" xml:space="preserve">
<g>
	<g>
		<path d="M461.319,103.04c-3.304-4.424-9.57-5.332-13.996-2.028c-4.424,3.305-5.333,9.571-2.028,13.996
			c69.575,93.158,59.937,225.512-22.418,307.868c-92.016,92.016-241.738,92.016-333.754,0c-92.017-92.016-92.017-241.738,0-333.754
			c82.449-82.449,214.896-92.02,308.08-22.259c4.422,3.309,10.689,2.408,13.999-2.013c3.309-4.421,2.408-10.688-2.013-13.998
			C360.376,14.31,299.816-3.54,238.666,0.583C176.921,4.749,118.79,31.169,74.98,74.979C26.629,123.332,0,187.619,0,255.999
			s26.629,132.668,74.98,181.02c48.353,48.351,112.64,74.98,181.02,74.98s132.667-26.629,181.019-74.981
			c43.773-43.774,70.191-101.857,74.387-163.549C515.561,212.376,497.773,151.85,461.319,103.04z"/>
	</g>
</g>
<g>
	<g>
		<path d="M437.132,75.093l-0.189-0.19c-3.894-3.916-10.227-3.932-14.142-0.037c-3.916,3.895-3.932,10.227-0.037,14.142l0.189,0.19
			c1.954,1.964,4.521,2.947,7.089,2.947c2.55,0,5.102-0.969,7.053-2.91C441.011,85.34,441.027,79.008,437.132,75.093z"/>
	</g>
</g>
<g>
	<g>
		<path d="M260.654,339.319c-4.888-2.572-10.935-0.693-13.505,4.196c-2.571,4.888-0.692,10.934,4.196,13.505l0.066,0.035
			c1.481,0.778,3.064,1.147,4.625,1.147c3.59,0,7.056-1.953,8.847-5.361C267.453,347.954,265.542,341.89,260.654,339.319z"/>
	</g>
</g>
<g>
	<g>
		<path d="M412.715,219.857c-1.177-3.62-4.306-6.259-8.073-6.806l-96.513-14.024l-43.162-87.456
			c-1.684-3.413-5.161-5.574-8.967-5.574c-3.806,0-7.282,2.161-8.967,5.574l-43.162,87.456l-96.513,14.024
			c-3.767,0.548-6.897,3.186-8.073,6.806c-1.176,3.62-0.195,7.594,2.531,10.251l69.837,68.075l-16.486,96.124
			c-0.644,3.752,0.898,7.544,3.978,9.781c3.079,2.237,7.161,2.533,10.531,0.761l61.438-32.3c4.889-2.569,6.768-8.616,4.198-13.504
			c-2.569-4.888-8.617-6.766-13.504-4.198l-43.504,22.871l13.95-81.334c0.557-3.244-0.519-6.554-2.876-8.851l-59.092-57.601
			l81.664-11.867c3.257-0.473,6.072-2.519,7.529-5.47l36.521-74l36.521,74c1.458,2.953,4.277,5,7.537,5.471l81.657,11.866
			l-59.092,57.601c-2.357,2.297-3.433,5.607-2.876,8.851l13.95,81.334l-41.937-22.047c-4.888-2.571-10.935-0.69-13.505,4.198
			s-0.691,10.935,4.198,13.505l59.872,31.476c1.463,0.77,3.06,1.149,4.652,1.149c2.073,0,4.136-0.644,5.878-1.911
			c3.08-2.238,4.622-6.03,3.978-9.781l-16.486-96.124l69.837-68.075C412.91,227.451,413.892,223.477,412.715,219.857z"/>
	</g>
</g>
<g>
</g>
<g>
</g>
<g>
</g>
<g>
</g>
<g>
</g>
<g>
</g>
<g>
</g>
<g>
</g>
<g>
</g>
<g>
</g>
<g>
</g>
<g>
</g>
<g>
</g>
<g>
</g>
<g>
</g>
</svg>
