<?xml version="1.0" encoding="iso-8859-1"?>
<!-- Generator: Adobe Illustrator 19.0.0, SVG Export Plug-In . SVG Version: 6.00 Build 0)  -->
<svg version="1.1" id="Layer_1" xmlns="http://www.w3.org/2000/svg" xmlns:xlink="http://www.w3.org/1999/xlink" x="0px" y="0px"
	 viewBox="0 0 512 512" style="enable-background:new 0 0 512 512;" xml:space="preserve">
<g>
	<g>
		<path d="M501.944,453.304L380.244,331.603c25.603-35.679,39.086-77.644,39.086-121.938C419.329,94.055,325.274,0,209.665,0
			S0,94.056,0,209.665s94.055,209.664,209.665,209.664c44.294,0,86.261-13.482,121.938-39.086l121.701,121.701
			c6.704,6.704,15.512,10.057,24.32,10.057c8.806,0,17.615-3.353,24.321-10.057C515.353,488.533,515.353,466.713,501.944,453.304z
			 M487.519,487.519c-5.457,5.456-14.335,5.458-19.791,0L339.774,359.565c-1.979-1.98-4.591-2.987-7.215-2.987
			c-2.21,0-4.431,0.716-6.287,2.17c-33.56,26.287-73.882,40.182-116.608,40.182c-104.361,0-189.265-84.904-189.265-189.266
			S105.304,20.399,209.665,20.399s189.264,84.904,189.266,189.266c0,42.726-13.896,83.049-40.182,116.608
			c-3.18,4.059-2.829,9.855,0.817,13.501l127.953,127.955C492.975,473.185,492.975,482.063,487.519,487.519z"/>
	</g>
</g>
<g>
	<g>
		<path d="M209.665,46.238c-90.114,0-163.427,73.312-163.427,163.427c0,90.113,73.313,163.426,163.427,163.426
			c90.113,0,163.426-73.313,163.427-163.426C373.092,119.551,299.778,46.238,209.665,46.238z M209.665,352.691
			c-78.866,0-143.028-64.161-143.028-143.027S130.799,66.636,209.665,66.636s143.028,64.162,143.028,143.028
			S288.53,352.691,209.665,352.691z"/>
	</g>
</g>
<g>
	<g>
		<path d="M308.026,179.491H110.353c-5.633,0-10.2,4.567-10.2,10.2v40.64c0,5.632,4.566,10.2,10.2,10.2h197.673
			c5.633,0,10.2-4.566,10.2-10.2v-40.64C318.225,184.059,313.658,179.491,308.026,179.491z M297.826,220.132H120.552v-20.241
			h177.274V220.132z"/>
	</g>
</g>
<g>
	<g>
		<path d="M323.678,253.274c-5.071-2.45-11.172-0.321-13.618,4.753c-1.017,2.105-2.112,4.203-3.257,6.235
			c-2.765,4.907-1.029,11.128,3.879,13.893c1.582,0.892,3.302,1.316,4.998,1.316c3.562,0,7.021-1.87,8.895-5.194
			c1.357-2.406,2.653-4.891,3.856-7.384C330.88,261.819,328.752,255.721,323.678,253.274z"/>
	</g>
</g>
<g>
	<g>
		<path d="M304.575,286.379c-4.069-3.895-10.526-3.753-14.421,0.315c-7.361,7.689-15.758,14.276-24.958,19.576
			c-4.88,2.813-6.558,9.049-3.746,13.93c1.889,3.277,5.319,5.11,8.848,5.11c1.727,0,3.477-0.439,5.082-1.364
			c10.88-6.269,20.809-14.056,29.51-23.146C308.786,296.73,308.644,290.274,304.575,286.379z"/>
	</g>
</g>
<g>
</g>
<g>
</g>
<g>
</g>
<g>
</g>
<g>
</g>
<g>
</g>
<g>
</g>
<g>
</g>
<g>
</g>
<g>
</g>
<g>
</g>
<g>
</g>
<g>
</g>
<g>
</g>
<g>
</g>
</svg>
