<?xml version="1.0" encoding="iso-8859-1"?>
<!-- Generator: Adobe Illustrator 19.0.0, SVG Export Plug-In . SVG Version: 6.00 Build 0)  -->
<svg version="1.1" id="Layer_1" xmlns="http://www.w3.org/2000/svg" xmlns:xlink="http://www.w3.org/1999/xlink" x="0px" y="0px"
	 viewBox="0 0 511.999 511.999" style="enable-background:new 0 0 511.999 511.999;" xml:space="preserve">
<g>
	<g>
		<path d="M501.925,453.297L380.229,331.6c25.602-35.678,39.084-77.64,39.084-121.935c0-115.606-94.052-209.658-209.657-209.658
			S0,94.059,0,209.665s94.052,209.658,209.658,209.658c44.293,0,86.257-13.481,121.935-39.084l121.697,121.697
			c6.704,6.704,15.511,10.056,24.318,10.056c8.808,0,17.614-3.353,24.318-10.055c6.496-6.496,10.074-15.134,10.074-24.32
			S508.421,459.792,501.925,453.297z M487.503,487.51c-5.457,5.456-14.334,5.458-19.791,0l-127.95-127.95
			c-1.979-1.98-4.591-2.987-7.214-2.987c-2.211,0-4.431,0.717-6.287,2.17c-33.558,26.286-73.879,40.181-116.604,40.181
			c-104.357,0-189.258-84.902-189.258-189.259S105.301,20.406,209.658,20.406s189.258,84.902,189.258,189.26
			c0,42.724-13.894,83.046-40.181,116.604c-3.18,4.059-2.829,9.854,0.817,13.501l127.95,127.95c2.644,2.643,4.099,6.156,4.099,9.894
			S490.145,484.867,487.503,487.51z"/>
	</g>
</g>
<g>
	<g>
		<path d="M209.657,46.244c-90.111,0-163.422,73.31-163.422,163.422c0,90.11,73.311,163.421,163.422,163.421
			s163.422-73.311,163.422-163.421C373.079,119.555,299.768,46.244,209.657,46.244z M209.657,352.688
			c-78.863,0-143.023-64.16-143.023-143.023s64.16-143.023,143.023-143.023S352.68,130.802,352.68,209.665
			S288.52,352.688,209.657,352.688z"/>
	</g>
</g>
<g>
	<g>
		<path d="M308.016,179.493h-68.315v-68.314c0-5.632-4.566-10.199-10.199-10.199h-40.638c-5.633,0-10.199,4.567-10.199,10.199
			v68.314H110.35c-5.633,0-10.199,4.567-10.199,10.199v40.639c0,5.632,4.566,10.199,10.199,10.199h68.314v68.314
			c0,5.632,4.566,10.199,10.199,10.199l40.638,0.001c2.705,0,5.299-1.074,7.212-2.987s2.987-4.507,2.987-7.212V240.53h68.315
			c5.633,0,10.199-4.567,10.199-10.199v-40.639C318.215,184.06,313.649,179.493,308.016,179.493z M297.817,220.132h-68.315
			c-5.633,0-10.199,4.567-10.199,10.199v68.315l-20.239-0.001v-68.314c0-5.632-4.566-10.199-10.199-10.199h-68.314v-20.24h68.314
			c5.633,0,10.199-4.567,10.199-10.199v-68.314h20.239v68.314c0,5.632,4.566,10.199,10.199,10.199h68.315V220.132z"/>
	</g>
</g>
<g>
	<g>
		<path d="M323.67,253.273c-5.075-2.451-11.171-0.32-13.619,4.753c-1.014,2.099-2.11,4.198-3.258,6.236
			c-2.765,4.908-1.027,11.127,3.881,13.892c1.582,0.891,3.3,1.315,4.996,1.315c3.563,0,7.023-1.87,8.897-5.194
			c1.359-2.412,2.656-4.897,3.856-7.383C330.87,261.818,328.743,255.72,323.67,253.273z"/>
	</g>
</g>
<g>
	<g>
		<path d="M304.565,286.377c-4.069-3.896-10.526-3.753-14.421,0.315c-7.362,7.69-15.758,14.277-24.956,19.575
			c-4.88,2.812-6.558,9.049-3.746,13.929c1.888,3.277,5.319,5.11,8.847,5.11c1.728,0,3.478-0.44,5.083-1.364
			c10.877-6.267,20.806-14.055,29.508-23.145C308.775,296.728,308.634,290.272,304.565,286.377z"/>
	</g>
</g>
<g>
</g>
<g>
</g>
<g>
</g>
<g>
</g>
<g>
</g>
<g>
</g>
<g>
</g>
<g>
</g>
<g>
</g>
<g>
</g>
<g>
</g>
<g>
</g>
<g>
</g>
<g>
</g>
<g>
</g>
</svg>
